Patient4_TMGait_0pt4_02_left_43_GRF.mot
version=1
nRows=52
nColumns=19
inDegrees=no
endheader
time	F1x	F1y	F1z	M1x	M1y	M1z	F2x	F2y	F2z	M2x	M2y	M2z	EC1x	EC1y	EC1z	EC2x	EC2y	EC2z
57.31	1.1746	-6.3464	0.9221	1.3781	1.3883	-6.1326	-34.2826	756.6304	-73.5906	261.5897	85.7187	801.6198	-0.0592	0.0182	-0.0073	-0.0462	0.0165	0.9585
57.3232	0.82008	-3.9442	0.68994	0.81101	0.89178	-3.84	-29.0567	749.6463	-69.6789	258.751	81.0535	793.7148	-0.0592	0.0182	-0.0073	-0.0462	0.0165	0.9585
57.3364	0.48795	-1.8591	0.4858	0.31005	0.45851	-1.799	-24.0221	742.85	-66.0019	256.055	76.4005	785.1644	-0.0592	0.0182	-0.0073	-0.0462	0.0165	0.9585
57.3496	0.20057	-0.21763	0.32889	-0.09353	0.10885	-0.1448	-19.4275	737.1144	-62.8184	253.8248	72.0527	776.8944	-0.0592	0.0182	-0.0073	-0.0462	0.0165	0.9585
57.3629	-0.008141	0.95199	0.22713	-0.39126	-0.15298	1.0581	-15.3482	733.1435	-60.241	252.2978	68.1743	769.7508	-0.0592	0.0182	-0.0073	-0.0462	0.0165	0.9585
57.3761	-0.16988	1.7075	0.17057	-0.59152	-0.33983	1.8603	-11.7335	731.3245	-58.263	251.5911	64.8048	764.277	-0.0592	0.0182	-0.0073	-0.0462	0.0165	0.9585
57.3893	-0.29324	2.1123	0.14455	-0.70285	-0.46368	2.3003	-8.4773	731.7023	-56.8327	251.695	61.9277	760.6642	-0.0592	0.0182	-0.0073	-0.0462	0.0165	0.9585
57.4025	-0.39827	2.2185	0.14091	-0.73043	-0.54611	2.4262	-5.4618	734.0143	-55.845	252.4924	59.4609	758.772	-0.0592	0.0182	-0.0073	-0.0462	0.0165	0.9585
57.4157	-0.50859	2.0534	0.14536	-0.67221	-0.60353	2.2605	-2.569	737.759	-55.2134	253.7836	57.3284	758.1902	-0.0592	0.0182	-0.0073	-0.0462	0.0165	0.9585
57.4289	-0.62435	1.6056	0.15529	-0.51454	-0.65105	1.7612	0.28172	742.3206	-54.8484	255.3306	55.4495	758.3848	-0.0592	0.0182	-0.0073	-0.0462	0.0165	0.9585
57.4421	-0.76342	0.85311	0.16036	-0.24013	-0.69484	0.90302	3.1562	747.037	-54.7019	256.8839	53.7768	758.7477	-0.0592	0.0182	-0.0073	-0.0462	0.0165	0.9585
57.4554	-0.9059	-0.26034	0.1602	0.17473	-0.73384	-0.38058	6.0646	751.3	-54.7313	258.2173	52.2792	758.7307	-0.0592	0.0182	-0.0073	-0.0462	0.0165	0.9585
57.4686	-1.0385	-1.7502	0.14891	0.73904	-0.7562	-2.092	8.9991	754.6122	-54.9223	259.1466	50.9531	757.8921	-0.0592	0.0182	-0.0073	-0.0462	0.0165	0.9585
57.4818	-1.1075	-3.581	0.11914	1.4403	-0.73027	-4.1945	11.94	756.5972	-55.2543	259.5336	49.7928	755.9045	-0.0592	0.0182	-0.0073	-0.0462	0.0165	0.9585
57.495	-1.0247	-5.6	0.062442	2.2199	-0.61437	-6.5118	14.8309	756.9703	-55.737	259.275	48.8346	752.5382	-0.0592	0.0182	-0.0073	-0.0462	0.0165	0.9585
57.5082	-0.68246	-7.461	-0.035618	2.9444	-0.35159	-8.6435	17.6172	755.5597	-56.3856	258.3138	48.116	747.6726	-0.0592	0.0182	-0.0073	-0.0462	0.0165	0.9585
57.5214	0.082789	-8.585	-0.18115	3.3851	0.12596	-9.9377	20.2331	752.4217	-57.2344	256.674	47.6916	741.4143	-0.0592	0.0182	-0.0073	-0.0462	0.0165	0.9585
57.5346	1.4177	-8.0629	-0.38453	3.1863	0.88876	-9.3378	22.6496	747.82	-58.2954	254.4601	47.5835	734.0499	-0.0592	0.0182	-0.0073	-0.0462	0.0165	0.9585
57.5479	3.4793	-4.6454	-0.63367	1.8607	1.9811	-5.4084	24.8356	742.1247	-59.5583	251.8185	47.7889	725.96	-0.0592	0.0182	-0.0073	-0.0462	0.0165	0.9585
57.5611	6.3394	3.2559	-0.91373	-1.2072	3.4073	3.6827	26.7806	735.6473	-60.974	248.8758	48.2581	717.4522	-0.0592	0.0182	-0.0073	-0.0462	0.0165	0.9585
57.5743	9.9333	17.4126	-1.1706	-6.703	5.0747	19.9659	28.474	728.4445	-62.4541	245.6706	48.9076	708.5817	-0.0592	0.0182	-0.0073	-0.0462	0.0165	0.9585
57.5875	13.9567	39.4936	-1.3219	-15.2709	6.765	45.3504	29.8317	720.14	-63.8466	242.0955	49.6183	699.0129	-0.0592	0.0182	-0.0073	-0.0462	0.0165	0.9585
57.6007	17.7091	70.5246	-1.2316	-27.3043	8.054	81.0127	30.7453	709.8461	-64.9403	237.8719	50.2271	687.9295	-0.0592	0.0182	-0.0073	-0.0462	0.0165	0.9585
57.6139	20.0304	110.0813	-0.71979	-42.6389	8.2941	126.4478	31.0567	696.3224	-65.4696	232.6009	50.5378	674.2031	-0.0592	0.0182	-0.0073	-0.0462	0.0165	0.9585
57.6271	19.3347	155.3908	0.41962	-60.1959	6.6607	178.4684	30.6015	678.2542	-65.1663	225.8619	50.355	656.6109	-0.0592	0.0182	-0.0073	-0.0462	0.0165	0.9585
57.6404	14.8997	201.3038	2.5719	-77.9554	2.4604	231.2007	29.2828	654.7379	-63.8243	217.3752	49.5262	634.2888	-0.0592	0.0182	-0.0073	-0.0462	0.0165	0.9585
57.6536	8.207	242.5086	6.192	-93.8297	-4.2104	278.495	27.186	625.8357	-61.3832	207.184	47.9816	607.2244	-0.0592	0.0182	-0.0073	-0.0462	0.0165	0.9585
57.6668	1.1401	276.5236	10.8821	-106.8771	-12.1543	317.2811	24.6006	592.6806	-58.0077	195.6837	45.785	576.3419	-0.0592	0.0182	-0.0073	-0.0462	0.0165	0.9585
57.68	-5.2838	304.5917	15.8926	-117.6126	-20.1365	348.8336	21.9498	556.9601	-54.0441	183.4427	43.1076	543.0601	-0.0592	0.0182	-0.0073	-0.0462	0.0165	0.9585
57.6932	-10.6231	329.7046	20.5238	-127.2341	-27.2192	376.5664	19.7057	520.1911	-49.8283	170.9682	40.0928	508.6191	-0.0592	0.0182	-0.0073	-0.0462	0.0165	0.9585
57.7064	-14.8069	354.6158	24.4171	-136.8324	-32.9836	403.6966	18.1624	483.261	-45.5575	158.5544	36.8059	473.7368	-0.0592	0.0182	-0.0073	-0.0462	0.0165	0.9585
57.7196	-17.9062	380.9088	27.4227	-147.0293	-37.3119	432.0422	17.3797	446.3581	-41.2603	146.2583	33.2306	438.5461	-0.0592	0.0182	-0.0073	-0.0462	0.0165	0.9585
57.7329	-19.9996	408.9776	29.6823	-157.9611	-40.4025	462.0613	17.2303	409.1779	-36.893	133.9666	29.3481	402.758	-0.0592	0.0182	-0.0073	-0.0462	0.0165	0.9585
57.7461	-21.1332	438.5967	31.4345	-169.515	-42.5617	493.5116	17.4198	371.2365	-32.435	121.4986	25.2229	365.9507	-0.0592	0.0182	-0.0073	-0.0462	0.0165	0.9585
57.7593	-21.3925	469.4965	33.0566	-181.5427	-44.2474	526.1326	17.5709	332.1597	-27.9572	108.7039	21.0396	327.8145	-0.0592	0.0182	-0.0073	-0.0462	0.0165	0.9585
57.7725	-20.8704	501.479	34.8594	-193.9302	-45.8479	559.6993	17.2863	291.9766	-23.6035	95.5625	17.0616	288.447	-0.0592	0.0182	-0.0073	-0.0462	0.0165	0.9585
57.7857	-19.7698	534.3815	37.144	-206.5863	-47.7619	594.0424	16.2736	251.2353	-19.5344	82.2313	13.5423	248.4438	-0.0592	0.0182	-0.0073	-0.0462	0.0165	0.9585
57.7989	-18.3598	568.0577	40.0329	-219.4447	-50.2207	628.9968	14.3867	211.0108	-15.8734	69.0514	10.6611	208.9085	-0.0592	0.0182	-0.0073	-0.0462	0.0165	0.9585
57.8121	-16.8908	602.3692	43.5356	-232.4557	-53.3145	664.4189	11.6993	172.7164	-12.6843	56.4851	8.4726	171.2567	-0.0592	0.0182	-0.0073	-0.0462	0.0165	0.9585
57.8254	-15.525	637.0391	47.4297	-245.5331	-56.8546	700.0038	8.5142	137.7471	-9.9762	44.9954	6.9028	136.856	-0.0592	0.0182	-0.0073	-0.0462	0.0165	0.9585
57.8386	-14.3298	671.429	51.4618	-258.449	-60.5843	735.0529	5.1947	107.1171	-7.7335	34.9232	5.8243	106.6971	-0.0592	0.0182	-0.0073	-0.0462	0.0165	0.9585
57.8518	-13.3702	704.4104	55.3628	-270.7816	-64.2326	768.3556	2.082	81.2665	-5.9168	26.423	5.0877	81.1975	-0.0592	0.0182	-0.0073	-0.0462	0.0165	0.9585
57.865	-12.6547	734.5579	58.9864	-281.9911	-67.6371	798.3903	-0.58876	60.1255	-4.4721	19.4774	4.5643	60.2878	-0.0592	0.0182	-0.0073	-0.0462	0.0165	0.9585
57.8782	-12.15	760.4963	62.1915	-291.5531	-70.6306	823.7064	-2.6879	43.2392	-3.3234	13.942	4.1404	43.5208	-0.0592	0.0182	-0.0073	-0.0462	0.0165	0.9585
57.8914	-11.7926	781.1025	64.9134	-299.0368	-73.1162	843.1623	-4.1435	29.9785	-2.401	9.6134	3.7265	30.2976	-0.0592	0.0182	-0.0073	-0.0462	0.0165	0.9585
57.9046	-11.5101	795.6752	67.0695	-304.179	-74.9825	856.0702	-4.9014	19.709	-1.65	6.2815	3.253	20.0257	-0.0592	0.0182	-0.0073	-0.0462	0.0165	0.9585
57.9179	-11.2386	804.0842	68.6406	-306.9317	-76.1866	862.3523	-4.933	11.8716	-1.0505	3.7596	2.6918	12.1654	-0.0592	0.0182	-0.0073	-0.0462	0.0165	0.9585
57.9311	-10.8961	806.7237	69.6109	-307.4487	-76.69	862.4713	-4.3332	6.0918	-0.59398	1.9181	2.0642	6.3533	-0.0592	0.0182	-0.0073	-0.0462	0.0165	0.9585
57.9443	-10.4369	804.3463	70.0562	-306.0211	-76.5581	857.2868	-3.3951	2.1583	-0.27665	0.67791	1.4591	2.3797	-0.0592	0.0182	-0.0073	-0.0462	0.0165	0.9585
57.9575	-9.8215	797.9308	70.0463	-303.0303	-75.8594	847.8569	-2.4072	-0.21985	-0.076562	-0.06107	0.94578	-0.031381	-0.0592	0.0182	-0.0073	-0.0462	0.0165	0.9585
57.9707	-9.0075	788.6228	69.6787	-298.923	-74.6888	835.3938	-1.5391	-1.4228	0.0277	-0.42536	0.55768	-1.2473	-0.0592	0.0182	-0.0073	-0.0462	0.0165	0.9585
57.9839	-7.9371	777.6607	69.0077	-294.1826	-73.0991	821.2005	-0.84661	-1.8155	0.070056	-0.5357	0.28358	-1.6406	-0.0592	0.0182	-0.0073	-0.0462	0.0165	0.9585
